<svg xmlns="http://www.w3.org/2000/svg" version="1.1" xmlns:xlink="http://www.w3.org/1999/xlink" xmlns:svgjs="http://svgjs.dev/svgjs" viewBox="0 0 800 800"><defs><linearGradient x1="50%" y1="0%" x2="50%" y2="100%" id="ffflurry-grad" gradientTransform="rotate(270)"><stop stop-color="hsl(238, 82%, 13%)" stop-opacity="1" offset="0%"></stop><stop stop-color="hsl(193, 76%, 59%)" stop-opacity="1" offset="45%"></stop><stop stop-color="hsl(149, 81%, 69%)" stop-opacity="1" offset="100%"></stop></linearGradient></defs><rect width="100%" height="100%" fill="hsl(238, 82%, 13%)"></rect><g fill="url(#ffflurry-grad)"><rect width="472" height="3" x="221" y="720.5" rx="1.5" transform="rotate(132, 457, 722)" opacity="0.59"></rect><rect width="376" height="3" x="522" y="347.5" rx="1.5" transform="rotate(132, 710, 349)" opacity="0.27"></rect><rect width="645" height="3" x="-70.5" y="695.5" rx="1.5" transform="rotate(132, 252, 697)" opacity="0.57"></rect><rect width="413" height="3" x="307.5" y="370.5" rx="1.5" transform="rotate(132, 514, 372)" opacity="0.12"></rect><rect width="535" height="3" x="-168.5" y="533.5" rx="1.5" transform="rotate(132, 99, 535)" opacity="0.53"></rect><rect width="521" height="3" x="455.5" y="144.5" rx="1.5" transform="rotate(132, 716, 146)" opacity="0.60"></rect><rect width="286" height="3" x="-68" y="706.5" rx="1.5" transform="rotate(132, 75, 708)" opacity="0.94"></rect><rect width="309" height="3" x="181.5" y="512.5" rx="1.5" transform="rotate(132, 336, 514)" opacity="0.40"></rect><rect width="118" height="3" x="358" y="125.5" rx="1.5" transform="rotate(132, 417, 127)" opacity="0.42"></rect><rect width="215" height="3" x="634.5" y="577.5" rx="1.5" transform="rotate(132, 742, 579)" opacity="0.86"></rect><rect width="373" height="3" x="196.5" y="282.5" rx="1.5" transform="rotate(132, 383, 284)" opacity="0.53"></rect><rect width="330" height="3" x="477" y="492.5" rx="1.5" transform="rotate(132, 642, 494)" opacity="0.63"></rect><rect width="103" height="3" x="27.5" y="172.5" rx="1.5" transform="rotate(132, 79, 174)" opacity="0.19"></rect><rect width="521" height="3" x="423.5" y="722.5" rx="1.5" transform="rotate(132, 684, 724)" opacity="0.49"></rect><rect width="388" height="3" x="-9" y="414.5" rx="1.5" transform="rotate(132, 185, 416)" opacity="0.92"></rect><rect width="201" height="3" x="159.5" y="307.5" rx="1.5" transform="rotate(132, 260, 309)" opacity="0.11"></rect><rect width="212" height="3" x="-45" y="345.5" rx="1.5" transform="rotate(132, 61, 347)" opacity="0.45"></rect><rect width="532" height="3" x="307" y="87.5" rx="1.5" transform="rotate(132, 573, 89)" opacity="0.45"></rect><rect width="214" height="3" x="94" y="82.5" rx="1.5" transform="rotate(132, 201, 84)" opacity="0.26"></rect><rect width="410" height="3" x="312" y="580.5" rx="1.5" transform="rotate(132, 517, 582)" opacity="0.35"></rect></g></svg>