<svg xmlns="http://www.w3.org/2000/svg" version="1.1" xmlns:xlink="http://www.w3.org/1999/xlink"
     xmlns:svgjs="http://svgjs.dev/svgjs" viewBox="0 0 800 800">
  <defs>
    <linearGradient x1="50%" y1="0%" x2="50%" y2="100%" id="ffflurry-grad" gradientTransform="rotate(270)">
      <stop stop-color="hsl(238, 82%, 13%)" stop-opacity="1" offset="0%"></stop>
      <stop stop-color="hsl(1.4, 100%, 67%)" stop-opacity="1" offset="45%"></stop>
      <stop stop-color="hsl(167, 52%, 78%)" stop-opacity="1" offset="100%"></stop>
    </linearGradient>
  </defs>
  <rect width="100%" height="100%" fill="hsl(238, 82%, 13%)"></rect>
  <g fill="url(#ffflurry-grad)">
    <rect width="467" height="3" x="461.5" y="507.5" rx="1.5" transform="rotate(45, 695, 509)" opacity="0.41"></rect>
    <rect width="407" height="3" x="566.5" y="319.5" rx="1.5" transform="rotate(45, 770, 321)" opacity="0.45"></rect>
    <rect width="28" height="3" x="268" y="633.5" rx="1.5" transform="rotate(45, 282, 635)" opacity="0.82"></rect>
    <rect width="52" height="3" x="516" y="700.5" rx="1.5" transform="rotate(45, 542, 702)" opacity="0.45"></rect>
    <rect width="297" height="3" x="539.5" y="183.5" rx="1.5" transform="rotate(45, 688, 185)" opacity="0.80"></rect>
    <rect width="163" height="3" x="642.5" y="152.5" rx="1.5" transform="rotate(45, 724, 154)" opacity="0.19"></rect>
    <rect width="149" height="3" x="459.5" y="436.5" rx="1.5" transform="rotate(45, 534, 438)" opacity="0.31"></rect>
    <rect width="292" height="3" x="-1" y="577.5" rx="1.5" transform="rotate(45, 145, 579)" opacity="0.40"></rect>
    <rect width="272" height="3" x="187" y="95.5" rx="1.5" transform="rotate(45, 323, 97)" opacity="0.25"></rect>
    <rect width="263" height="3" x="55.5" y="401.5" rx="1.5" transform="rotate(45, 187, 403)" opacity="0.49"></rect>
    <rect width="169" height="3" x="647.5" y="268.5" rx="1.5" transform="rotate(45, 732, 270)" opacity="0.44"></rect>
    <rect width="100" height="3" x="411" y="241.5" rx="1.5" transform="rotate(45, 461, 243)" opacity="0.15"></rect>
    <rect width="58" height="3" x="400" y="691.5" rx="1.5" transform="rotate(45, 429, 693)" opacity="0.49"></rect>
    <rect width="168" height="3" x="-55" y="704.5" rx="1.5" transform="rotate(45, 29, 706)" opacity="0.24"></rect>
    <rect width="317" height="3" x="124.5" y="171.5" rx="1.5" transform="rotate(45, 283, 173)" opacity="0.78"></rect>
    <rect width="144" height="3" x="365" y="623.5" rx="1.5" transform="rotate(45, 437, 625)" opacity="0.88"></rect>
    <rect width="365" height="3" x="-148.5" y="288.5" rx="1.5" transform="rotate(45, 34, 290)" opacity="0.72"></rect>
    <rect width="234" height="3" x="424" y="190.5" rx="1.5" transform="rotate(45, 541, 192)" opacity="0.62"></rect>
    <rect width="174" height="3" x="265" y="141.5" rx="1.5" transform="rotate(45, 352, 143)" opacity="0.29"></rect>
    <rect width="105" height="3" x="634.5" y="335.5" rx="1.5" transform="rotate(45, 687, 337)" opacity="0.57"></rect>
    <rect width="135" height="3" x="356.5" y="328.5" rx="1.5" transform="rotate(45, 424, 330)" opacity="0.22"></rect>
    <rect width="347" height="3" x="395.5" y="87.5" rx="1.5" transform="rotate(45, 569, 89)" opacity="0.50"></rect>
    <rect width="119" height="3" x="251.5" y="283.5" rx="1.5" transform="rotate(45, 311, 285)" opacity="0.61"></rect>
    <rect width="99" height="3" x="235.5" y="55.5" rx="1.5" transform="rotate(45, 285, 57)" opacity="0.31"></rect>
    <rect width="231" height="3" x="-98.5" y="771.5" rx="1.5" transform="rotate(45, 17, 773)" opacity="0.14"></rect>
    <rect width="245" height="3" x="263.5" y="549.5" rx="1.5" transform="rotate(45, 386, 551)" opacity="0.69"></rect>
    <rect width="203" height="3" x="481.5" y="157.5" rx="1.5" transform="rotate(45, 583, 159)" opacity="0.51"></rect>
    <rect width="352" height="3" x="272" y="771.5" rx="1.5" transform="rotate(45, 448, 773)" opacity="0.59"></rect>
    <rect width="172" height="3" x="449" y="12.5" rx="1.5" transform="rotate(45, 535, 14)" opacity="1.00"></rect>
    <rect width="81" height="3" x="269.5" y="13.5" rx="1.5" transform="rotate(45, 310, 15)" opacity="0.77"></rect>
    <rect width="227" height="3" x="76.5" y="333.5" rx="1.5" transform="rotate(45, 190, 335)" opacity="0.10"></rect>
    <rect width="372" height="3" x="429" y="28.5" rx="1.5" transform="rotate(45, 615, 30)" opacity="0.14"></rect>
    <rect width="89" height="3" x="-6.5" y="645.5" rx="1.5" transform="rotate(45, 38, 647)" opacity="0.57"></rect>
    <rect width="478" height="3" x="522" y="606.5" rx="1.5" transform="rotate(45, 761, 608)" opacity="0.45"></rect>
    <rect width="49" height="3" x="575.5" y="423.5" rx="1.5" transform="rotate(45, 600, 425)" opacity="0.10"></rect>
    <rect width="182" height="3" x="685" y="731.5" rx="1.5" transform="rotate(45, 776, 733)" opacity="0.25"></rect>
    <rect width="261" height="3" x="-34.5" y="702.5" rx="1.5" transform="rotate(45, 96, 704)" opacity="0.89"></rect>
    <rect width="529" height="3" x="395.5" y="574.5" rx="1.5" transform="rotate(45, 660, 576)" opacity="0.18"></rect>
    <rect width="319" height="3" x="187.5" y="210.5" rx="1.5" transform="rotate(45, 347, 212)" opacity="0.82"></rect>
    <rect width="541" height="3" x="-226.5" y="384.5" rx="1.5" transform="rotate(45, 44, 386)" opacity="0.80"></rect>
    <rect width="247" height="3" x="377.5" y="772.5" rx="1.5" transform="rotate(45, 501, 774)" opacity="0.87"></rect>
    <rect width="48" height="3" x="466" y="149.5" rx="1.5" transform="rotate(45, 490, 151)" opacity="0.72"></rect>
    <rect width="586" height="3" x="289" y="611.5" rx="1.5" transform="rotate(45, 582, 613)" opacity="0.26"></rect>
    <rect width="143" height="3" x="18.5" y="126.5" rx="1.5" transform="rotate(45, 90, 128)" opacity="0.41"></rect>
    <rect width="518" height="3" x="207" y="429.5" rx="1.5" transform="rotate(45, 466, 431)" opacity="0.75"></rect>
    <rect width="415" height="3" x="186.5" y="387.5" rx="1.5" transform="rotate(45, 394, 389)" opacity="0.47"></rect>
    <rect width="113" height="3" x="-30.5" y="121.5" rx="1.5" transform="rotate(45, 26, 123)" opacity="0.15"></rect>
    <rect width="158" height="3" x="607" y="95.5" rx="1.5" transform="rotate(45, 686, 97)" opacity="0.76"></rect>
    <rect width="49" height="3" x="211.5" y="140.5" rx="1.5" transform="rotate(45, 236, 142)" opacity="0.29"></rect>
    <rect width="107" height="3" x="-11.5" y="186.5" rx="1.5" transform="rotate(45, 42, 188)" opacity="0.82"></rect>
    <rect width="293" height="3" x="90.5" y="260.5" rx="1.5" transform="rotate(45, 237, 262)" opacity="0.80"></rect>
    <rect width="598" height="3" x="210" y="517.5" rx="1.5" transform="rotate(45, 509, 519)" opacity="0.70"></rect>
    <rect width="210" height="3" x="487" y="252.5" rx="1.5" transform="rotate(45, 592, 254)" opacity="0.21"></rect>
    <rect width="293" height="3" x="499.5" y="217.5" rx="1.5" transform="rotate(45, 646, 219)" opacity="0.67"></rect>
    <rect width="255" height="3" x="324.5" y="283.5" rx="1.5" transform="rotate(45, 452, 285)" opacity="0.26"></rect>
    <rect width="245" height="3" x="120.5" y="333.5" rx="1.5" transform="rotate(45, 243, 335)" opacity="0.55"></rect>
    <rect width="72" height="3" x="214" y="451.5" rx="1.5" transform="rotate(45, 250, 453)" opacity="0.51"></rect>
    <rect width="226" height="3" x="193" y="742.5" rx="1.5" transform="rotate(45, 306, 744)" opacity="0.79"></rect>
    <rect width="301" height="3" x="613.5" y="517.5" rx="1.5" transform="rotate(45, 764, 519)" opacity="0.45"></rect>
    <rect width="73" height="3" x="484.5" y="111.5" rx="1.5" transform="rotate(45, 521, 113)" opacity="0.15"></rect>
    <rect width="205" height="3" x="678.5" y="134.5" rx="1.5" transform="rotate(45, 781, 136)" opacity="0.78"></rect>
    <rect width="613" height="3" x="299.5" y="508.5" rx="1.5" transform="rotate(45, 606, 510)" opacity="0.14"></rect>
    <rect width="374" height="3" x="10" y="544.5" rx="1.5" transform="rotate(45, 197, 546)" opacity="0.72"></rect>
    <rect width="191" height="3" x="16.5" y="283.5" rx="1.5" transform="rotate(45, 112, 285)" opacity="0.73"></rect>
    <rect width="457" height="3" x="149.5" y="762.5" rx="1.5" transform="rotate(45, 378, 764)" opacity="0.97"></rect>
    <rect width="318" height="3" x="-76" y="226.5" rx="1.5" transform="rotate(45, 83, 228)" opacity="0.88"></rect>
    <rect width="277" height="3" x="254.5" y="260.5" rx="1.5" transform="rotate(45, 393, 262)" opacity="0.18"></rect>
    <rect width="178" height="3" x="95" y="685.5" rx="1.5" transform="rotate(45, 184, 687)" opacity="0.33"></rect>
    <rect width="157" height="3" x="657.5" y="393.5" rx="1.5" transform="rotate(45, 736, 395)" opacity="0.12"></rect>
    <rect width="188" height="3" x="554" y="133.5" rx="1.5" transform="rotate(45, 648, 135)" opacity="0.74"></rect>
    <rect width="122" height="3" x="166" y="598.5" rx="1.5" transform="rotate(45, 227, 600)" opacity="0.26"></rect>
    <rect width="419" height="3" x="24.5" y="29.5" rx="1.5" transform="rotate(45, 234, 31)" opacity="0.13"></rect>
    <rect width="127" height="3" x="-48.5" y="538.5" rx="1.5" transform="rotate(45, 15, 540)" opacity="0.99"></rect>
    <rect width="304" height="3" x="-55" y="67.5" rx="1.5" transform="rotate(45, 97, 69)" opacity="0.09"></rect>
    <rect width="546" height="3" x="307" y="343.5" rx="1.5" transform="rotate(45, 580, 345)" opacity="0.75"></rect>
    <rect width="481" height="3" x="-121.5" y="355.5" rx="1.5" transform="rotate(45, 119, 357)" opacity="0.55"></rect>
    <rect width="266" height="3" x="362" y="205.5" rx="1.5" transform="rotate(45, 495, 207)" opacity="0.41"></rect>
    <rect width="30" height="3" x="585" y="775.5" rx="1.5" transform="rotate(45, 600, 777)" opacity="0.97"></rect>
    <rect width="28" height="3" x="320" y="41.5" rx="1.5" transform="rotate(45, 334, 43)" opacity="0.44"></rect>
    <rect width="139" height="3" x="208.5" y="353.5" rx="1.5" transform="rotate(45, 278, 355)" opacity="0.93"></rect>
    <rect width="364" height="3" x="-49" y="659.5" rx="1.5" transform="rotate(45, 133, 661)" opacity="0.83"></rect>
    <rect width="243" height="3" x="417.5" y="50.5" rx="1.5" transform="rotate(45, 539, 52)" opacity="0.92"></rect>
    <rect width="66" height="3" x="287" y="669.5" rx="1.5" transform="rotate(45, 320, 671)" opacity="0.30"></rect>
    <rect width="408" height="3" x="152" y="610.5" rx="1.5" transform="rotate(45, 356, 612)" opacity="0.13"></rect>
    <rect width="207" height="3" x="584.5" y="32.5" rx="1.5" transform="rotate(45, 688, 34)" opacity="0.90"></rect>
    <rect width="328" height="3" x="1" y="211.5" rx="1.5" transform="rotate(45, 165, 213)" opacity="0.62"></rect>
    <rect width="176" height="3" x="-46" y="589.5" rx="1.5" transform="rotate(45, 42, 591)" opacity="0.23"></rect>
    <rect width="227" height="3" x="604.5" y="774.5" rx="1.5" transform="rotate(45, 718, 776)" opacity="0.46"></rect>
    <rect width="284" height="3" x="581" y="697.5" rx="1.5" transform="rotate(45, 723, 699)" opacity="0.23"></rect>
    <rect width="352" height="3" x="18" y="457.5" rx="1.5" transform="rotate(45, 194, 459)" opacity="0.88"></rect>
    <rect width="357" height="3" x="7.5" y="624.5" rx="1.5" transform="rotate(45, 186, 626)" opacity="0.48"></rect>
    <rect width="252" height="3" x="497" y="89.5" rx="1.5" transform="rotate(45, 623, 91)" opacity="0.88"></rect>
    <rect width="154" height="3" x="378" y="193.5" rx="1.5" transform="rotate(45, 455, 195)" opacity="0.11"></rect>
    <rect width="212" height="3" x="635" y="102.5" rx="1.5" transform="rotate(45, 741, 104)" opacity="0.25"></rect>
    <rect width="133" height="3" x="-12.5" y="759.5" rx="1.5" transform="rotate(45, 54, 761)" opacity="0.55"></rect>
    <rect width="328" height="3" x="-36" y="174.5" rx="1.5" transform="rotate(45, 128, 176)" opacity="0.51"></rect>
    <rect width="342" height="3" x="106" y="573.5" rx="1.5" transform="rotate(45, 277, 575)" opacity="0.51"></rect>
    <rect width="177" height="3" x="690.5" y="226.5" rx="1.5" transform="rotate(45, 779, 228)" opacity="0.47"></rect>
    <rect width="237" height="3" x="122.5" y="681.5" rx="1.5" transform="rotate(45, 241, 683)" opacity="0.99"></rect>
    <rect width="80" height="3" x="655" y="637.5" rx="1.5" transform="rotate(45, 695, 639)" opacity="0.29"></rect>
    <rect width="196" height="3" x="266" y="310.5" rx="1.5" transform="rotate(45, 364, 312)" opacity="0.98"></rect>
    <rect width="398" height="3" x="436" y="662.5" rx="1.5" transform="rotate(45, 635, 664)" opacity="0.95"></rect>
    <rect width="267" height="3" x="-30.5" y="771.5" rx="1.5" transform="rotate(45, 103, 773)" opacity="0.99"></rect>
    <rect width="469" height="3" x="528.5" y="37.5" rx="1.5" transform="rotate(45, 763, 39)" opacity="0.07"></rect>
    <rect width="236" height="3" x="287" y="207.5" rx="1.5" transform="rotate(45, 405, 209)" opacity="0.91"></rect>
    <rect width="57" height="3" x="133.5" y="752.5" rx="1.5" transform="rotate(45, 162, 754)" opacity="0.24"></rect>
    <rect width="193" height="3" x="77.5" y="264.5" rx="1.5" transform="rotate(45, 174, 266)" opacity="0.96"></rect>
    <rect width="65" height="3" x="119.5" y="29.5" rx="1.5" transform="rotate(45, 152, 31)" opacity="0.45"></rect>
    <rect width="100" height="3" x="7" y="539.5" rx="1.5" transform="rotate(45, 57, 541)" opacity="0.41"></rect>
    <rect width="147" height="3" x="531.5" y="718.5" rx="1.5" transform="rotate(45, 605, 720)" opacity="0.90"></rect>
    <rect width="210" height="3" x="551" y="277.5" rx="1.5" transform="rotate(45, 656, 279)" opacity="0.36"></rect>
    <rect width="132" height="3" x="292" y="59.5" rx="1.5" transform="rotate(45, 358, 61)" opacity="0.07"></rect>
    <rect width="270" height="3" x="72" y="180.5" rx="1.5" transform="rotate(45, 207, 182)" opacity="0.13"></rect>
    <rect width="219" height="3" x="205.5" y="426.5" rx="1.5" transform="rotate(45, 315, 428)" opacity="0.18"></rect>
    <rect width="515" height="3" x="-217.5" y="35.5" rx="1.5" transform="rotate(45, 40, 37)" opacity="0.93"></rect>
    <rect width="298" height="3" x="251" y="470.5" rx="1.5" transform="rotate(45, 400, 472)" opacity="0.22"></rect>
    <rect width="114" height="3" x="46" y="526.5" rx="1.5" transform="rotate(45, 103, 528)" opacity="0.82"></rect>
    <rect width="531" height="3" x="247.5" y="612.5" rx="1.5" transform="rotate(45, 513, 614)" opacity="0.08"></rect>
    <rect width="397" height="3" x="52.5" y="518.5" rx="1.5" transform="rotate(45, 251, 520)" opacity="0.42"></rect>
    <rect width="257" height="3" x="195.5" y="367.5" rx="1.5" transform="rotate(45, 324, 369)" opacity="0.21"></rect>
    <rect width="192" height="3" x="190" y="226.5" rx="1.5" transform="rotate(45, 286, 228)" opacity="0.93"></rect>
    <rect width="163" height="3" x="333.5" y="154.5" rx="1.5" transform="rotate(45, 415, 156)" opacity="0.87"></rect>
    <rect width="201" height="3" x="433.5" y="249.5" rx="1.5" transform="rotate(45, 534, 251)" opacity="0.72"></rect>
    <rect width="338" height="3" x="161" y="551.5" rx="1.5" transform="rotate(45, 330, 553)" opacity="0.68"></rect>
    <rect width="173" height="3" x="392.5" y="713.5" rx="1.5" transform="rotate(45, 479, 715)" opacity="0.21"></rect>
    <rect width="264" height="3" x="267" y="25.5" rx="1.5" transform="rotate(45, 399, 27)" opacity="0.75"></rect>
    <rect width="183" height="3" x="690.5" y="386.5" rx="1.5" transform="rotate(45, 782, 388)" opacity="0.88"></rect>
    <rect width="43" height="3" x="134.5" y="505.5" rx="1.5" transform="rotate(45, 156, 507)" opacity="0.59"></rect>
    <rect width="83" height="3" x="236.5" y="106.5" rx="1.5" transform="rotate(45, 278, 108)" opacity="0.13"></rect>
    <rect width="189" height="3" x="577.5" y="415.5" rx="1.5" transform="rotate(45, 672, 417)" opacity="0.41"></rect>
    <rect width="400" height="3" x="-101" y="610.5" rx="1.5" transform="rotate(45, 99, 612)" opacity="0.34"></rect>
    <rect width="328" height="3" x="572" y="202.5" rx="1.5" transform="rotate(45, 736, 204)" opacity="0.23"></rect>
    <rect width="185" height="3" x="541.5" y="173.5" rx="1.5" transform="rotate(45, 634, 175)" opacity="0.18"></rect>
    <rect width="229" height="3" x="400.5" y="298.5" rx="1.5" transform="rotate(45, 515, 300)" opacity="0.68"></rect>
    <rect width="351" height="3" x="-19.5" y="111.5" rx="1.5" transform="rotate(45, 156, 113)" opacity="0.91"></rect>
    <rect width="376" height="3" x="281" y="39.5" rx="1.5" transform="rotate(45, 469, 41)" opacity="0.53"></rect>
    <rect width="82" height="3" x="502" y="770.5" rx="1.5" transform="rotate(45, 543, 772)" opacity="0.79"></rect>
    <rect width="29" height="3" x="13.5" y="456.5" rx="1.5" transform="rotate(45, 28, 458)" opacity="0.86"></rect>
    <rect width="190" height="3" x="293" y="89.5" rx="1.5" transform="rotate(45, 388, 91)" opacity="0.08"></rect>
    <rect width="122" height="3" x="702" y="451.5" rx="1.5" transform="rotate(45, 763, 453)" opacity="0.79"></rect>
    <rect width="354" height="3" x="268" y="548.5" rx="1.5" transform="rotate(45, 445, 550)" opacity="0.58"></rect>
    <rect width="309" height="3" x="80.5" y="762.5" rx="1.5" transform="rotate(45, 235, 764)" opacity="0.88"></rect>
    <rect width="41" height="3" x="351.5" y="680.5" rx="1.5" transform="rotate(45, 372, 682)" opacity="0.42"></rect>
    <rect width="405" height="3" x="243.5" y="101.5" rx="1.5" transform="rotate(45, 446, 103)" opacity="0.51"></rect>
    <rect width="103" height="3" x="62.5" y="444.5" rx="1.5" transform="rotate(45, 114, 446)" opacity="0.42"></rect>
    <rect width="175" height="3" x="123.5" y="89.5" rx="1.5" transform="rotate(45, 211, 91)" opacity="0.71"></rect>
    <rect width="466" height="3" x="85" y="491.5" rx="1.5" transform="rotate(45, 318, 493)" opacity="0.14"></rect>
    <rect width="390" height="3" x="289" y="356.5" rx="1.5" transform="rotate(45, 484, 358)" opacity="0.35"></rect>
    <rect width="307" height="3" x="507.5" y="744.5" rx="1.5" transform="rotate(45, 661, 746)" opacity="0.71"></rect>
    <rect width="292" height="3" x="-84" y="489.5" rx="1.5" transform="rotate(45, 62, 491)" opacity="0.12"></rect>
  </g>
</svg>