<svg xmlns="http://www.w3.org/2000/svg" version="1.1" xmlns:xlink="http://www.w3.org/1999/xlink" xmlns:svgjs="http://svgjs.dev/svgjs" viewBox="0 0 800 800"><defs><linearGradient x1="50%" y1="0%" x2="50%" y2="100%" id="ffflurry-grad" gradientTransform="rotate(270)"><stop stop-color="hsl(238, 82%, 13%)" stop-opacity="1" offset="0%"></stop><stop stop-color="hsl(193, 76%, 59%)" stop-opacity="1" offset="45%"></stop><stop stop-color="hsl(149, 81%, 69%)" stop-opacity="1" offset="100%"></stop></linearGradient></defs><rect width="100%" height="100%" fill="hsl(238, 82%, 13%)"></rect><g fill="url(#ffflurry-grad)"><rect width="485" height="4" x="330.5" y="306" rx="2" transform="rotate(132, 573, 308)" opacity="0.62"></rect><rect width="195" height="4" x="472.5" y="192" rx="2" transform="rotate(132, 570, 194)" opacity="0.44"></rect><rect width="295" height="4" x="241.5" y="759" rx="2" transform="rotate(132, 389, 761)" opacity="0.68"></rect><rect width="88" height="4" x="445" y="58" rx="2" transform="rotate(132, 489, 60)" opacity="0.26"></rect><rect width="179" height="4" x="125.5" y="742" rx="2" transform="rotate(132, 215, 744)" opacity="0.18"></rect><rect width="353" height="4" x="264.5" y="212" rx="2" transform="rotate(132, 441, 214)" opacity="0.67"></rect><rect width="367" height="4" x="206.5" y="672" rx="2" transform="rotate(132, 390, 674)" opacity="0.79"></rect><rect width="322" height="4" x="592" y="110" rx="2" transform="rotate(132, 753, 112)" opacity="0.99"></rect><rect width="153" height="4" x="384.5" y="614" rx="2" transform="rotate(132, 461, 616)" opacity="0.78"></rect><rect width="361" height="4" x="553.5" y="344" rx="2" transform="rotate(132, 734, 346)" opacity="0.85"></rect><rect width="542" height="4" x="2" y="624" rx="2" transform="rotate(132, 273, 626)" opacity="0.52"></rect><rect width="373" height="4" x="561.5" y="485" rx="2" transform="rotate(132, 748, 487)" opacity="0.43"></rect><rect width="98" height="4" x="46" y="457" rx="2" transform="rotate(132, 95, 459)" opacity="0.86"></rect><rect width="127" height="4" x="588.5" y="424" rx="2" transform="rotate(132, 652, 426)" opacity="0.24"></rect><rect width="209" height="4" x="-39.5" y="721" rx="2" transform="rotate(132, 65, 723)" opacity="0.62"></rect><rect width="279" height="4" x="138.5" y="55" rx="2" transform="rotate(132, 278, 57)" opacity="0.65"></rect><rect width="253" height="4" x="567.5" y="28" rx="2" transform="rotate(132, 694, 30)" opacity="0.14"></rect><rect width="76" height="4" x="339" y="510" rx="2" transform="rotate(132, 377, 512)" opacity="0.54"></rect><rect width="381" height="4" x="38.5" y="246" rx="2" transform="rotate(132, 229, 248)" opacity="0.36"></rect><rect width="340" height="4" x="-126" y="85" rx="2" transform="rotate(132, 44, 87)" opacity="0.43"></rect><rect width="535" height="4" x="456.5" y="733" rx="2" transform="rotate(132, 724, 735)" opacity="0.37"></rect><rect width="310" height="4" x="385" y="753" rx="2" transform="rotate(132, 540, 755)" opacity="0.89"></rect><rect width="649" height="4" x="-249.5" y="297" rx="2" transform="rotate(132, 75, 299)" opacity="0.19"></rect><rect width="310" height="4" x="120" y="397" rx="2" transform="rotate(132, 275, 399)" opacity="0.60"></rect><rect width="56" height="4" x="532" y="517" rx="2" transform="rotate(132, 560, 519)" opacity="0.10"></rect><rect width="516" height="4" x="164" y="341" rx="2" transform="rotate(132, 422, 343)" opacity="0.29"></rect><rect width="405" height="4" x="-50.5" y="54" rx="2" transform="rotate(132, 152, 56)" opacity="0.96"></rect><rect width="382" height="4" x="407" y="682" rx="2" transform="rotate(132, 598, 684)" opacity="0.42"></rect><rect width="160" height="4" x="54" y="164" rx="2" transform="rotate(132, 134, 166)" opacity="0.75"></rect><rect width="61" height="4" x="680.5" y="598" rx="2" transform="rotate(132, 711, 600)" opacity="0.46"></rect><rect width="91" height="4" x="302.5" y="146" rx="2" transform="rotate(132, 348, 148)" opacity="0.98"></rect><rect width="224" height="4" x="412" y="426" rx="2" transform="rotate(132, 524, 428)" opacity="0.95"></rect><rect width="494" height="4" x="-125" y="590" rx="2" transform="rotate(132, 122, 592)" opacity="0.49"></rect><rect width="225" height="4" x="449.5" y="599" rx="2" transform="rotate(132, 562, 601)" opacity="0.77"></rect><rect width="138" height="4" x="565" y="114" rx="2" transform="rotate(132, 634, 116)" opacity="0.34"></rect><rect width="465" height="4" x="490.5" y="232" rx="2" transform="rotate(132, 723, 234)" opacity="0.79"></rect></g></svg>