<svg xmlns="http://www.w3.org/2000/svg" version="1.1" xmlns:xlink="http://www.w3.org/1999/xlink" xmlns:svgjs="http://svgjs.dev/svgjs" viewBox="0 0 800 800"><defs><linearGradient x1="50%" y1="0%" x2="50%" y2="100%" id="ffflurry-grad" gradientTransform="rotate(270)"><stop stop-color="hsl(0, 0%, 98%)" stop-opacity="1" offset="0%"></stop><stop stop-color="hsl(162, 100%, 58%)" stop-opacity="1" offset="45%"></stop><stop stop-color="hsl(270, 73%, 53%)" stop-opacity="1" offset="100%"></stop></linearGradient></defs><rect width="100%" height="100%" fill="hsl(0, 0%, 98%)"></rect><g fill="url(#ffflurry-grad)"><rect width="123" height="1" x="551.5" y="70.5" rx="0.5" transform="rotate(45, 613, 71)" opacity="0.46"></rect><rect width="234" height="1" x="-30" y="149.5" rx="0.5" transform="rotate(45, 87, 150)" opacity="0.64"></rect><rect width="272" height="1" x="84" y="338.5" rx="0.5" transform="rotate(45, 220, 339)" opacity="0.59"></rect><rect width="407" height="1" x="257.5" y="287.5" rx="0.5" transform="rotate(45, 461, 288)" opacity="0.74"></rect><rect width="276" height="1" x="-30" y="530.5" rx="0.5" transform="rotate(45, 108, 531)" opacity="0.57"></rect><rect width="419" height="1" x="111.5" y="88.5" rx="0.5" transform="rotate(45, 321, 89)" opacity="0.72"></rect><rect width="289" height="1" x="507.5" y="653.5" rx="0.5" transform="rotate(45, 652, 654)" opacity="0.49"></rect><rect width="419" height="1" x="459.5" y="397.5" rx="0.5" transform="rotate(45, 669, 398)" opacity="0.52"></rect><rect width="495" height="1" x="142.5" y="615.5" rx="0.5" transform="rotate(45, 390, 616)" opacity="0.20"></rect><rect width="395" height="1" x="518.5" y="189.5" rx="0.5" transform="rotate(45, 716, 190)" opacity="0.55"></rect><rect width="332" height="1" x="-10" y="727.5" rx="0.5" transform="rotate(45, 156, 728)" opacity="0.33"></rect></g></svg>
