<svg width="654.7624999999999px" height="191.6px" xmlns="http://www.w3.org/2000/svg" viewBox="-77.38124999999997 -20.799999999999997 654.7624999999999 191.6" style="background: rgb(253, 253, 253);" preserveAspectRatio="xMidYMid"><defs><linearGradient id="editing-glowing-gradient" x1="0.8146601955249186" x2="0.18533980447508142" y1="0.8885729807284856" y2="0.11142701927151444"><stop offset="0" stop-color="#06083d"></stop><stop offset="1" stop-color="#85a2b6"></stop></linearGradient><filter id="editing-glowing" x="-100%" y="-100%" width="300%" height="300%"><feGaussianBlur in="SourceGraphic" result="blur" stdDeviation="10"></feGaussianBlur><feMerge><feMergeNode in="blur"></feMergeNode><feMergeNode in="SourceGraphic"></feMergeNode></feMerge></filter></defs><g filter="url(#editing-glowing)"><g transform="translate(13.294989824295044, 111.76999950408936)"><path d="M8.64 0.26L8.64 0.26Q8.32 0.19 8.10-0.19L8.10-0.19L8.10-0.19Q7.87-0.58 7.87-1.09L7.87-1.09L8-1.86L8-1.86Q9.41-6.78 10.02-9.57L10.02-9.57L10.02-9.57Q10.62-12.35 11.14-16.19L11.14-16.19L11.90-21.06L11.90-21.06Q9.15-24.58 4.80-49.22L4.80-49.22L4.80-49.22Q3.65-56.19 3.14-59.90L3.14-59.90L3.14-59.90Q3.14-60.74 3.62-61.34L3.62-61.34L3.62-61.34Q4.10-61.95 4.80-61.95L4.80-61.95L4.80-61.95Q5.50-61.95 5.98-61.57L5.98-61.57L5.98-61.57Q6.46-61.18 6.46-60.61L6.46-60.61L6.46-60.61Q6.46-60.22 6.14-59.58L6.14-59.58L6.91-53.89L6.91-53.89Q9.73-33.34 13.31-24.32L13.31-24.32L13.31-24.32Q14.53-26.88 18.05-36.03L18.05-36.03L18.05-36.03Q21.50-45.06 24.51-50.88L24.51-50.88L24.51-50.88Q27.52-56.70 31.36-61.38L31.36-61.38L31.36-61.38Q31.74-61.89 32.45-61.89L32.45-61.89L32.45-61.89Q33.73-61.89 33.73-60.80L33.73-60.80L33.73-60.80Q33.73-60.22 31.81-57.47L31.81-57.47L31.81-57.47Q29.12-53.38 26.91-49.47L26.91-49.47L26.91-49.47Q24.70-45.57 22.59-40.19L22.59-40.19L18.75-30.21L18.75-30.21Q16.77-24.83 15.30-21.76L15.30-21.76L15.30-21.76Q13.57-15.04 12.99-11.71L12.99-11.71L12.99-11.71Q12.54-9.15 10.30-0.83L10.30-0.83L10.30-0.83Q10.11-0.26 9.66 0.06L9.66 0.06L9.66 0.06Q9.22 0.38 8.64 0.26L8.64 0.26ZM39.10 0.58L39.10 0.58Q35.78 0.58 34.14-2.05L34.14-2.05L34.14-2.05Q32.51-4.67 32.51-8.32L32.51-8.32L32.51-8.32Q32.51-14.14 34.46-19.62L34.46-19.62L34.46-19.62Q36.42-25.09 39.81-28.67L39.81-28.67L39.81-28.67Q43.07-32.32 47.17-32.32L47.17-32.32L47.17-32.32Q53.06-32.32 53.06-23.36L53.06-23.36L53.06-23.36Q53.06-18.88 51.58-14.21L51.58-14.21L51.58-14.21Q50.11-9.54 47.78-5.89L47.78-5.89L47.78-5.89Q45.44-2.24 42.94-0.64L42.94-0.64L42.94-0.64Q41.02 0.58 39.10 0.58L39.10 0.58ZM39.62-2.30L39.62-2.30Q41.60-2.30 44.06-5.76L44.06-5.76L44.06-5.76Q46.53-9.22 48.19-14.34L48.19-14.34L48.19-14.34Q49.92-19.46 49.92-23.04L49.92-23.04L49.92-23.04Q49.92-26.75 49.47-27.65L49.47-27.65L49.47-27.65Q49.09-28.61 48.51-28.99L48.51-28.99L48.51-28.99Q47.94-29.38 46.72-29.38L46.72-29.38L46.72-29.38Q45.38-29.38 43.90-28.35L43.90-28.35L43.90-28.35Q40.96-26.50 38.78-21.95L38.78-21.95L38.78-21.95Q35.39-15.17 35.39-8.77L35.39-8.77L35.39-8.77Q35.39-4.42 37.89-2.75L37.89-2.75L37.89-2.75Q38.78-2.30 39.62-2.30L39.62-2.30ZM73.66 1.54L73.66 1.54Q71.74 1.54 71.74-3.58L71.74-3.58L71.74-3.58Q71.74-6.27 72.19-8.96L72.19-8.96L72.19-8.96Q72.64-11.65 73.60-15.94L73.60-15.94L74.11-18.30L74.11-18.30Q73.02-16.19 71.55-12.93L71.55-12.93L71.55-12.93Q68.93-7.55 66.27-3.52L66.27-3.52L66.27-3.52Q63.62 0.51 60.99 0.51L60.99 0.51L60.99 0.51Q57.54 0.51 57.54-6.34L57.54-6.34L57.54-6.34Q57.54-14.85 60.29-26.24L60.29-26.24L61.31-30.14L61.31-30.14Q61.89-32.26 63.30-32.26L63.30-32.26L63.30-32.26Q64.06-32.26 64.38-31.17L64.38-31.17L64.38-31.17Q64.26-30.02 63.87-28.42L63.87-28.42L63.87-28.42Q63.49-26.82 63.36-26.11L63.36-26.11L63.36-26.11Q62.14-21.44 61.38-16.80L61.38-16.80L61.38-16.80Q60.61-12.16 60.48-5.50L60.48-5.50L60.48-5.50Q60.48-2.94 61.31-2.94L61.31-2.94L61.31-2.94Q62.53-2.94 64.58-5.79L64.58-5.79L64.58-5.79Q66.62-8.64 69.63-14.46L69.63-14.46L69.63-14.46Q72.58-20.80 75.26-25.89L75.26-25.89L75.26-25.89Q77.95-30.98 79.49-30.98L79.49-30.98L79.49-30.98Q80.58-30.98 80.58-29.76L80.58-29.76L80.58-29.76Q80.58-28.86 78.98-24.70L78.98-24.70L78.98-24.70Q77.76-21.57 77.38-20.16L77.38-20.16L77.38-20.16Q75.14-12.48 74.56-3.39L74.56-3.39L74.56-3.39Q74.56-2.56 74.72-2.14L74.72-2.14L74.72-2.14Q74.88-1.73 75.30-1.28L75.30-1.28L75.30-1.28Q75.71-0.83 75.71-0.19L75.71-0.19L75.71-0.19Q75.71 0.45 75.01 0.99L75.01 0.99L75.01 0.99Q74.30 1.54 73.66 1.54L73.66 1.54ZM107.07 0.77L107.07 0.77Q104 0.77 102.24-1.50L102.24-1.50L102.24-1.50Q100.48-3.78 100.48-6.98L100.48-6.98L100.48-6.98Q100.48-12.61 102.56-18.62L102.56-18.62L102.56-18.62Q104.64-24.64 108.03-28.67L108.03-28.67L108.03-28.67Q111.36-32.70 115.20-32.70L115.20-32.70L115.20-32.70Q117.95-32.70 118.78-30.72L118.78-30.72L118.78-30.72Q118.98-30.40 119.10-30.05L119.10-30.05L119.10-30.05Q119.23-29.70 119.36-29.38L119.36-29.38L119.36-29.38Q119.68-28.48 120-28.35L120-28.35L120-28.35Q120.26-27.71 120.26-27.39L120.26-27.39L120.26-27.39Q120.26-26.82 119.71-26.30L119.71-26.30L119.71-26.30Q119.17-25.79 118.53-25.79L118.53-25.79L118.53-25.79Q117.18-25.79 116.80-27.78L116.80-27.78L116.80-27.78Q116.42-29.76 114.69-29.76L114.69-29.76L114.69-29.76Q112.38-29.76 109.82-26.21L109.82-26.21L109.82-26.21Q107.26-22.66 105.41-17.22L105.41-17.22L105.41-17.22Q103.62-12.10 103.62-8.06L103.62-8.06L103.62-8.06Q103.62-2.37 107.78-2.37L107.78-2.37L107.78-2.37Q109.89-2.37 111.68-4.35L111.68-4.35L111.68-4.35Q111.87-4.61 112.38-5.22L112.38-5.22L112.38-5.22Q112.90-5.82 113.34-6.11L113.34-6.11L113.34-6.11Q113.79-6.40 114.18-6.40L114.18-6.40L114.18-6.40Q115.39-6.40 115.39-5.31L115.39-5.31L115.39-5.31Q115.39-4.03 114.18-2.59L114.18-2.59L114.18-2.59Q112.96-1.15 111.04-0.19L111.04-0.19L111.04-0.19Q109.12 0.77 107.07 0.77L107.07 0.77ZM142.98 0.13L142.98 0.13Q141.50 0.13 140.26-1.44L140.26-1.44L140.26-1.44Q139.01-3.01 139.01-4.80L139.01-4.80L139.01-4.80Q139.01-8.77 141.12-18.24L141.12-18.24L141.12-18.24Q139.52-14.78 136.99-11.17L136.99-11.17L136.99-11.17Q134.46-7.55 132.03-4.80L132.03-4.80L132.03-4.80Q129.60-2.05 128.45-1.22L128.45-1.22L128.45-1.22Q126.85 0 124.93 0L124.93 0L124.93 0Q121.28 0 121.28-4.61L121.28-4.61L121.28-4.61Q121.28-9.09 124.67-15.78L124.67-15.78L124.67-15.78Q128.06-22.46 132.74-27.39L132.74-27.39L132.74-27.39Q137.41-32.26 140.29-32.26L140.29-32.26L140.29-32.26Q143.23-32.26 143.62-29.70L143.62-29.70L143.62-29.70Q143.81-28.93 143.81-28.03L143.81-28.03L143.81-28.03Q144.13-28.22 144.51-28.22L144.51-28.22L144.51-28.22Q145.98-28.22 145.98-26.82L145.98-26.82L145.98-26.56L145.22-23.74L145.22-23.74Q144.32-20.54 143.36-14.27L143.36-14.27L143.36-14.27Q142.40-8 142.40-3.84L142.40-3.84L143.04-3.46L143.04-3.46Q144.58-2.50 144.58-1.54L144.58-1.54L144.58-1.54Q144.58-0.90 144.13-0.38L144.13-0.38L144.13-0.38Q143.68 0.13 142.98 0.13L142.98 0.13ZM125.44-3.33L125.44-3.33Q126.14-3.33 126.59-3.78L126.59-3.78L126.59-3.78Q133.12-9.34 138.18-19.20L138.18-19.20L138.18-19.20Q140.35-23.30 140.90-24.58L140.90-24.58L140.90-24.58Q141.44-25.86 141.44-27.07L141.44-27.07L141.44-27.07Q141.44-27.71 141.12-28.22L141.12-28.22L141.12-28.22Q140.80-28.74 140.29-28.74L140.29-28.74L140.29-28.74Q139.65-28.74 138.62-28.16L138.62-28.16L138.62-28.16Q136.06-26.82 132.58-22.46L132.58-22.46L132.58-22.46Q129.09-18.11 126.85-13.25L126.85-13.25L126.85-13.25Q124.48-8.32 124.48-4.48L124.48-4.48L124.48-4.48Q124.48-3.33 125.44-3.33L125.44-3.33ZM168.90 0.38L168.90 0.38Q167.87 0.38 167.42 0L167.42 0L167.42 0Q166.98-0.38 167.10-1.34L167.10-1.34L170.24-20.03L170.24-20.03Q170.82-23.49 170.82-25.34L170.82-25.34L170.82-25.34Q170.82-28.42 169.09-28.42L169.09-28.42L169.09-28.42Q166.98-28.42 163.30-21.09L163.30-21.09L163.30-21.09Q159.62-13.76 155.71-4.54L155.71-4.54L154.82-2.50L154.82-2.50Q153.66 0 152.51 0L152.51 0L152.51 0Q151.87 0 151.71-0.29L151.71-0.29L151.71-0.29Q151.55-0.58 151.55-1.54L151.55-1.54L151.55-1.54Q151.55-2.50 154.08-16.32L154.08-16.32L154.08-16.32Q156.61-30.14 156.99-30.85L156.99-30.85L156.99-30.85Q157.38-31.62 157.66-31.81L157.66-31.81L157.66-31.81Q157.95-32 158.78-32L158.78-32L158.78-32Q159.55-32 160.03-31.42L160.03-31.42L160.03-31.42Q160.51-30.85 160.51-30.27L160.51-30.27L160.51-30.27Q160.51-29.89 159.87-27.78L159.87-27.78L159.87-27.78Q157.95-21.25 156.86-15.10L156.86-15.10L156.22-11.33L156.22-11.33Q157.31-13.63 157.82-14.91L157.82-14.91L157.82-14.91Q159.62-19.07 161.12-22.21L161.12-22.21L161.12-22.21Q162.62-25.34 164.48-28.03L164.48-28.03L164.48-28.03Q167.30-32.06 169.73-32.06L169.73-32.06L169.73-32.06Q174.02-32.06 174.02-25.15L174.02-25.15L174.02-25.15Q174.02-23.68 173.63-21.38L173.63-21.38L173.63-21.38Q173.25-19.07 172.80-16.64L172.80-16.64L172.80-16.64Q171.90-11.97 171.65-10.24L171.65-10.24L171.20-7.30L171.20-7.30Q170.62-3.33 170.18-1.47L170.18-1.47L170.18-1.47Q169.73 0.38 168.90 0.38L168.90 0.38ZM198.27 0.90L198.27 0.90Q197.63 0.90 197.18 0.64L197.18 0.64L197.18 0.64Q196.74 0.38 196.74 0L196.74 0L196.74 0Q197.31-1.79 197.63-3.71L197.63-3.71L197.63-3.71Q198.08-6.08 198.66-7.68L198.66-7.68L198.66-7.68Q201.15-17.54 203.01-30.14L203.01-30.14L203.20-31.23L203.20-31.23Q203.20-31.68 204.10-32.70L204.10-32.70L204.10-32.70Q204.67-32.96 205.06-32.96L205.06-32.96L205.06-32.96Q205.89-32.96 206.21-31.87L206.21-31.87L206.21-31.36L206.21-31.36Q206.14-27.14 204.80-21.44L204.80-21.44L203.20-14.72L204.74-18.05L204.74-18.05Q208.06-25.86 211.14-29.31L211.14-29.31L211.14-29.31Q214.02-32.58 217.54-32.58L217.54-32.58L217.54-32.58Q219.39-32.58 220.64-31.04L220.64-31.04L220.64-31.04Q221.89-29.50 221.89-27.39L221.89-27.39L221.89-26.88L221.89-26.88Q221.82-26.69 221.82-26.37L221.82-26.37L221.82-26.37Q225.28-30.59 229.06-32.13L229.06-32.13L229.06-32.13Q230.27-32.64 231.42-32.64L231.42-32.64L231.42-32.64Q232.64-32.64 233.66-31.49L233.66-31.49L233.66-31.49Q234.69-30.34 234.69-28.54L234.69-28.54L234.69-28.54Q234.69-25.02 233.28-20.16L233.28-20.16L233.28-20.16Q232.38-17.22 231.87-15.74L231.87-15.74L231.87-15.74Q228.80-6.66 228.48-3.46L228.48-3.46L228.48-3.46Q228.42-2.88 228.29-2.02L228.29-2.02L228.29-2.02Q228.16-1.15 228.10-0.96L228.10-0.96L228.10-0.96Q227.58 0.58 226.37 0.58L226.37 0.58L226.37 0.58Q224.90 0.58 224.90-2.56L224.90-2.56L224.90-2.56Q224.90-4.48 225.60-6.78L225.60-6.78L225.60-6.78Q226.18-8.51 226.82-10.69L226.82-10.69L226.82-10.69Q227.01-11.46 228.03-14.40L228.03-14.40L228.03-14.40Q229.50-18.56 230.34-21.44L230.34-21.44L230.34-21.44Q231.17-24.32 231.49-27.78L231.49-27.78L231.49-27.78Q231.49-28.99 231.20-29.28L231.20-29.28L231.20-29.28Q230.91-29.57 230.02-29.57L230.02-29.57L230.02-29.57Q229.06-29.57 227.36-28.42L227.36-28.42L227.36-28.42Q225.66-27.26 224-25.34L224-25.34L224-25.34Q220.16-20.99 218.11-14.08L218.11-14.08L218.11-14.08Q217.47-11.71 217.02-10.69L217.02-10.69L217.02-10.69Q214.91-4.29 214.40-2.37L214.40-2.37L214.40-2.37Q213.89-0.32 213.57 0.06L213.57 0.06L213.57 0.06Q213.18 0.58 212.42 0.58L212.42 0.58L212.42 0.58Q210.94 0.58 210.82-1.02L210.82-1.02L210.82-1.02Q211.46-5.50 212.61-8.96L212.61-8.96L212.61-8.96Q213.76-12.42 215.49-16.70L215.49-16.70L215.49-16.70Q216.58-19.52 217.38-22.37L217.38-22.37L217.38-22.37Q218.18-25.22 218.18-27.20L218.18-27.20L218.18-27.20Q218.18-29.38 216.83-29.38L216.83-29.38L216.83-29.38Q214.59-29.38 211.71-25.18L211.71-25.18L211.71-25.18Q208.83-20.99 206.40-15.90L206.40-15.90L206.40-15.90Q203.97-10.82 203.26-8.70L203.26-8.70L203.26-8.70Q202.82-7.49 202.56-6.75L202.56-6.75L202.56-6.75Q202.30-6.02 202.18-5.57L202.18-5.57L202.18-5.57Q200.13 0.90 198.27 0.90L198.27 0.90ZM260.93 0.13L260.93 0.13Q259.46 0.13 258.21-1.44L258.21-1.44L258.21-1.44Q256.96-3.01 256.96-4.80L256.96-4.80L256.96-4.80Q256.96-8.77 259.07-18.24L259.07-18.24L259.07-18.24Q257.47-14.78 254.94-11.17L254.94-11.17L254.94-11.17Q252.42-7.55 249.98-4.80L249.98-4.80L249.98-4.80Q247.55-2.05 246.40-1.22L246.40-1.22L246.40-1.22Q244.80 0 242.88 0L242.88 0L242.88 0Q239.23 0 239.23-4.61L239.23-4.61L239.23-4.61Q239.23-9.09 242.62-15.78L242.62-15.78L242.62-15.78Q246.02-22.46 250.69-27.39L250.69-27.39L250.69-27.39Q255.36-32.26 258.24-32.26L258.24-32.26L258.24-32.26Q261.18-32.26 261.57-29.70L261.57-29.70L261.57-29.70Q261.76-28.93 261.76-28.03L261.76-28.03L261.76-28.03Q262.08-28.22 262.46-28.22L262.46-28.22L262.46-28.22Q263.94-28.22 263.94-26.82L263.94-26.82L263.94-26.56L263.17-23.74L263.17-23.74Q262.27-20.54 261.31-14.27L261.31-14.27L261.31-14.27Q260.35-8 260.35-3.84L260.35-3.84L260.99-3.46L260.99-3.46Q262.53-2.50 262.53-1.54L262.53-1.54L262.53-1.54Q262.53-0.90 262.08-0.38L262.08-0.38L262.08-0.38Q261.63 0.13 260.93 0.13L260.93 0.13ZM243.39-3.33L243.39-3.33Q244.10-3.33 244.54-3.78L244.54-3.78L244.54-3.78Q251.07-9.34 256.13-19.20L256.13-19.20L256.13-19.20Q258.30-23.30 258.85-24.58L258.85-24.58L258.85-24.58Q259.39-25.86 259.39-27.07L259.39-27.07L259.39-27.07Q259.39-27.71 259.07-28.22L259.07-28.22L259.07-28.22Q258.75-28.74 258.24-28.74L258.24-28.74L258.24-28.74Q257.60-28.74 256.58-28.16L256.58-28.16L256.58-28.16Q254.02-26.82 250.53-22.46L250.53-22.46L250.53-22.46Q247.04-18.11 244.80-13.25L244.80-13.25L244.80-13.25Q242.43-8.32 242.43-4.48L242.43-4.48L242.43-4.48Q242.43-3.33 243.39-3.33L243.39-3.33ZM270.78 0.77L270.78 0.77Q270.02 0.77 269.50 0.48L269.50 0.48L269.50 0.48Q268.99 0.19 268.99-0.13L268.99-0.13L268.99-0.13Q268.99-2.37 271.94-14.34L271.94-14.34L272.70-17.66L272.70-17.66Q276.03-31.68 277.66-39.04L277.66-39.04L277.66-39.04Q279.30-46.40 280.38-52.74L280.38-52.74L280.70-54.59L280.70-54.59Q281.28-58.43 281.70-60.06L281.70-60.06L281.70-60.06Q282.11-61.70 282.75-61.70L282.75-61.70L282.75-61.70Q284.80-61.70 284.80-59.58L284.80-59.58L284.80-59.58Q284.80-58.94 284.10-55.30L284.10-55.30L284.10-55.30Q283.78-53.76 282.62-48.32L282.62-48.32L282.62-48.32Q281.86-44.22 280.58-38.78L280.58-38.78L278.66-29.89L278.66-29.89Q281.22-32.64 283.84-32.64L283.84-32.64L283.84-32.64Q286.21-32.64 287.26-31.01L287.26-31.01L287.26-31.01Q288.32-29.38 288.32-27.07L288.32-27.07L288.32-27.07Q288.32-23.49 285.79-20.64L285.79-20.64L285.79-20.64Q283.26-17.79 277.63-14.40L277.63-14.40L277.63-14.40Q278.21-11.26 279.87-8.48L279.87-8.48L279.87-8.48Q281.54-5.70 283.78-4.03L283.78-4.03L283.78-4.03Q286.02-2.37 288.19-2.37L288.19-2.37L288.19-2.37Q289.60-2.37 290.14-3.17L290.14-3.17L290.14-3.17Q290.69-3.97 291.14-5.38L291.14-5.38L291.14-5.38Q291.52-6.27 292.16-6.27L292.16-6.27L292.16-6.27Q293.82-6.27 293.82-4.16L293.82-4.16L293.82-4.16Q293.82-2.88 292.74-1.73L292.74-1.73L292.74-1.73Q290.62 0.64 288.45 0.64L288.45 0.64L288.45 0.64Q284.99 0.64 282.14-1.57L282.14-1.57L282.14-1.57Q279.30-3.78 277.38-7.36L277.38-7.36L277.38-7.36Q276.03-9.79 275.46-13.12L275.46-13.12L275.01-12.80L275.01-12.80Q274.82-10.88 273.60-6.53L273.60-6.53L272.26-0.83L272.26-0.83Q272 0.77 270.78 0.77L270.78 0.77ZM275.33-15.74L275.33-15.74Q275.65-16.06 276.48-16.51L276.48-16.51L276.48-16.51Q280.70-19.14 283.14-21.89L283.14-21.89L283.14-21.89Q285.06-24.13 285.06-26.88L285.06-26.88L285.06-26.88Q285.06-29.70 283.14-29.70L283.14-29.70L283.14-29.70Q280.64-29.70 278.91-27.49L278.91-27.49L278.91-27.49Q277.18-25.28 276.35-20.93L276.35-20.93L276.35-20.93Q276.35-20.67 276.26-20.32L276.26-20.32L276.26-20.32Q276.16-19.97 276.10-19.52L276.10-19.52L276.10-19.52Q276.16-19.84 275.33-15.74L275.33-15.74ZM303.36 0.64L303.36 0.64Q301.31 0.64 300.16-0.03L300.16-0.03L300.16-0.03Q299.01-0.70 298.30-2.11L298.30-2.11L298.30-2.11Q296.96-4.61 296.96-8.13L296.96-8.13L296.96-8.13Q296.96-14.27 298.82-19.81L298.82-19.81L298.82-19.81Q300.67-25.34 303.87-29.12L303.87-29.12L303.87-29.12Q306.94-32.70 310.59-32.70L310.59-32.70L310.59-32.70Q312.51-32.70 313.63-31.14L313.63-31.14L313.63-31.14Q314.75-29.57 314.75-27.33L314.75-27.33L314.75-27.33Q314.75-23.42 312.74-20.54L312.74-20.54L312.74-20.54Q310.72-17.66 307.33-15.74L307.33-15.74L307.33-15.74Q304.38-14.02 300.16-12.29L300.16-12.29L300.03-7.68L300.03-7.68Q300.03-2.30 303.30-2.30L303.30-2.30L303.30-2.30Q304.64-2.30 305.89-2.82L305.89-2.82L305.89-2.82Q307.14-3.33 308.61-4.22L308.61-4.22L308.61-4.22Q310.34-5.25 311.04-5.25L311.04-5.25L311.04-5.25Q312.13-5.25 312.13-4.10L312.13-4.10L312.13-4.10Q312.13-3.26 310.56-2.11L310.56-2.11L310.56-2.11Q308.99-0.96 306.88-0.16L306.88-0.16L306.88-0.16Q304.77 0.64 303.36 0.64L303.36 0.64ZM300.67-15.36L300.67-15.36Q304.96-17.09 307.20-18.43L307.20-18.43L307.20-18.43Q309.44-19.78 310.62-21.82L310.62-21.82L310.62-21.82Q311.81-23.87 311.81-27.20L311.81-27.20L311.81-27.20Q311.81-29.70 309.70-29.70L309.70-29.70L309.70-29.70Q307.84-29.70 305.34-26.30L305.34-26.30L305.34-26.30Q302.72-22.91 301.12-17.41L301.12-17.41L301.12-17.41Q300.67-15.87 300.67-15.36L300.67-15.36ZM336.38 0.64L336.38 0.64Q334.21 0.64 334.21-2.88L334.21-2.88L334.21-2.88Q334.21-3.78 334.53-4.48L334.53-4.48L334.53-4.48Q334.85-5.57 335.10-6.98L335.10-6.98L336.06-11.26L337.34-16.90L337.34-16.90Q337.98-20.03 338.88-23.94L338.88-23.94L338.88-23.94Q339.01-24.32 339.14-25.22L339.14-25.22L339.14-25.22Q339.78-27.97 339.78-28.42L339.78-28.42L339.78-29.06L339.78-29.06Q339.78-29.57 339.33-31.17L339.33-31.17L339.33-31.17Q339.33-31.94 339.87-32.58L339.87-32.58L339.87-32.58Q340.42-33.22 341.18-33.22L341.18-33.22L341.18-33.22Q341.89-33.22 342.40-32.26L342.40-32.26L342.40-32.26Q342.91-31.30 342.91-30.14L342.91-30.14L342.91-30.14Q342.91-28.86 339.97-16.32L339.97-16.32L339.97-16.32Q337.02-3.78 337.02-3.01L337.02-3.01L337.02-3.01Q337.02-2.30 337.66-2.30L337.66-2.30L337.66-2.30Q337.98-2.30 338.82-3.14L338.82-3.14L338.82-3.14Q339.58-3.90 340.10-3.90L340.10-3.90L340.10-3.90Q341.12-3.90 341.12-2.62L341.12-2.62L341.12-2.62Q341.12-1.86 340.22-1.09L340.22-1.09L340.22-1.09Q339.33-0.32 338.18 0.16L338.18 0.16L338.18 0.16Q337.02 0.64 336.38 0.64L336.38 0.64ZM342.85-38.02L342.85-38.02Q341.82-38.02 341.31-38.27L341.31-38.27L341.06-38.27L341.06-38.27Q339.20-38.27 339.20-40.45L339.20-40.45L339.20-40.45Q339.20-41.54 340.13-42.43L340.13-42.43L340.13-42.43Q341.06-43.33 342.14-43.33L342.14-43.33L342.14-43.33Q343.23-43.33 344.19-42.56L344.19-42.56L344.19-42.56Q345.28-41.47 345.28-40.45L345.28-40.45L345.28-40.45Q345.28-39.49 344.54-38.75L344.54-38.75L344.54-38.75Q343.81-38.02 342.85-38.02L342.85-38.02ZM354.18 0.26L354.18 0.26Q351.94 0.26 350.82-0.90L350.82-0.90L350.82-0.90Q349.70-2.05 349.70-5.06L349.70-5.06L349.70-5.06Q349.70-6.72 350.08-8.90L350.08-8.90L350.66-12.54L351.36-15.55L351.74-17.28L352.58-20.80L352.58-20.80Q352.70-21.63 353.15-23.49L353.15-23.49L353.47-24.77L354.05-27.52L354.43-29.44L354.43-29.44Q351.94-29.44 349.82-29.12L349.82-29.12L349.82-29.12Q348.54-29.31 348.54-30.21L348.54-30.21L348.54-30.21Q348.54-30.85 349.06-31.42L349.06-31.42L349.06-31.42Q349.57-32 350.27-32.06L350.27-32.06L354.88-31.94L354.88-31.94Q354.88-31.94 355.20-33.54L355.20-33.54L355.20-33.54Q355.33-34.82 355.71-36.48L355.71-36.48L355.71-36.48Q356.10-38.14 356.67-39.42L356.67-39.42L356.67-39.42Q357.25-40.83 358.34-40.83L358.34-40.83L358.34-40.83Q359.36-40.83 359.36-39.68L359.36-39.68L359.36-39.30L359.36-39.30Q359.10-38.02 358.91-37.44L358.91-37.44L357.82-32L362.43-32L362.43-32Q364.86-32 365.44-31.62L365.44-31.62L365.44-31.62Q365.95-31.23 365.95-30.66L365.95-30.66L365.95-30.66Q365.95-29.63 365.02-29.34L365.02-29.34L365.02-29.34Q364.10-29.06 361.86-29.06L361.86-29.06L361.86-29.06Q359.81-29.06 357.31-29.25L357.31-29.25L357.31-29.25Q356.93-27.14 354.69-17.54L354.69-17.54L354.69-17.54Q352.64-8.83 352.64-6.53L352.64-6.53L352.64-6.53Q352.64-4.03 353.22-3.26L353.22-3.26L353.22-3.26Q353.54-2.75 354.56-2.75L354.56-2.75L354.56-2.75Q355.46-2.75 356.13-3.23L356.13-3.23L356.13-3.23Q356.80-3.71 357.50-4.54L357.50-4.54L357.50-4.54Q358.21-5.44 358.72-5.89L358.72-5.89L358.72-5.89Q359.23-6.34 359.81-6.34L359.81-6.34L359.81-6.34Q361.09-6.34 361.09-5.06L361.09-5.06L361.09-5.06Q361.09-4.42 359.81-2.94L359.81-2.94L359.81-2.94Q358.53-1.47 357.38-0.58L357.38-0.58L357.38-0.58Q356.35 0.26 354.18 0.26L354.18 0.26ZM391.04 0.26L391.04 0.26Q388.80 0.26 387.68-0.90L387.68-0.90L387.68-0.90Q386.56-2.05 386.56-5.06L386.56-5.06L386.56-5.06Q386.56-6.72 386.94-8.90L386.94-8.90L387.52-12.54L388.22-15.55L388.61-17.28L389.44-20.80L389.44-20.80Q389.57-21.63 390.02-23.49L390.02-23.49L390.34-24.77L390.91-27.52L391.30-29.44L391.30-29.44Q388.80-29.44 386.69-29.12L386.69-29.12L386.69-29.12Q385.41-29.31 385.41-30.21L385.41-30.21L385.41-30.21Q385.41-30.85 385.92-31.42L385.92-31.42L385.92-31.42Q386.43-32 387.14-32.06L387.14-32.06L391.74-31.94L391.74-31.94Q391.74-31.94 392.06-33.54L392.06-33.54L392.06-33.54Q392.19-34.82 392.58-36.48L392.58-36.48L392.58-36.48Q392.96-38.14 393.54-39.42L393.54-39.42L393.54-39.42Q394.11-40.83 395.20-40.83L395.20-40.83L395.20-40.83Q396.22-40.83 396.22-39.68L396.22-39.68L396.22-39.30L396.22-39.30Q395.97-38.02 395.78-37.44L395.78-37.44L394.69-32L399.30-32L399.30-32Q401.73-32 402.30-31.62L402.30-31.62L402.30-31.62Q402.82-31.23 402.82-30.66L402.82-30.66L402.82-30.66Q402.82-29.63 401.89-29.34L401.89-29.34L401.89-29.34Q400.96-29.06 398.72-29.06L398.72-29.06L398.72-29.06Q396.67-29.06 394.18-29.25L394.18-29.25L394.18-29.25Q393.79-27.14 391.55-17.54L391.55-17.54L391.55-17.54Q389.50-8.83 389.50-6.53L389.50-6.53L389.50-6.53Q389.50-4.03 390.08-3.26L390.08-3.26L390.08-3.26Q390.40-2.75 391.42-2.75L391.42-2.75L391.42-2.75Q392.32-2.75 392.99-3.23L392.99-3.23L392.99-3.23Q393.66-3.71 394.37-4.54L394.37-4.54L394.37-4.54Q395.07-5.44 395.58-5.89L395.58-5.89L395.58-5.89Q396.10-6.34 396.67-6.34L396.67-6.34L396.67-6.34Q397.95-6.34 397.95-5.06L397.95-5.06L397.95-5.06Q397.95-4.42 396.67-2.94L396.67-2.94L396.67-2.94Q395.39-1.47 394.24-0.58L394.24-0.58L394.24-0.58Q393.22 0.26 391.04 0.26L391.04 0.26ZM411.52 0.58L411.52 0.58Q408.19 0.58 406.56-2.05L406.56-2.05L406.56-2.05Q404.93-4.67 404.93-8.32L404.93-8.32L404.93-8.32Q404.93-14.14 406.88-19.62L406.88-19.62L406.88-19.62Q408.83-25.09 412.22-28.67L412.22-28.67L412.22-28.67Q415.49-32.32 419.58-32.32L419.58-32.32L419.58-32.32Q425.47-32.32 425.47-23.36L425.47-23.36L425.47-23.36Q425.47-18.88 424-14.21L424-14.21L424-14.21Q422.53-9.54 420.19-5.89L420.19-5.89L420.19-5.89Q417.86-2.24 415.36-0.64L415.36-0.64L415.36-0.64Q413.44 0.58 411.52 0.58L411.52 0.58ZM412.03-2.30L412.03-2.30Q414.02-2.30 416.48-5.76L416.48-5.76L416.48-5.76Q418.94-9.22 420.61-14.34L420.61-14.34L420.61-14.34Q422.34-19.46 422.34-23.04L422.34-23.04L422.34-23.04Q422.34-26.75 421.89-27.65L421.89-27.65L421.89-27.65Q421.50-28.61 420.93-28.99L420.93-28.99L420.93-28.99Q420.35-29.38 419.14-29.38L419.14-29.38L419.14-29.38Q417.79-29.38 416.32-28.35L416.32-28.35L416.32-28.35Q413.38-26.50 411.20-21.95L411.20-21.95L411.20-21.95Q407.81-15.17 407.81-8.77L407.81-8.77L407.81-8.77Q407.81-4.42 410.30-2.75L410.30-2.75L410.30-2.75Q411.20-2.30 412.03-2.30L412.03-2.30ZM435.90 0.58L435.90 0.58Q432.58 0.58 430.94-2.05L430.94-2.05L430.94-2.05Q429.31-4.67 429.31-8.32L429.31-8.32L429.31-8.32Q429.31-14.14 431.26-19.62L431.26-19.62L431.26-19.62Q433.22-25.09 436.61-28.67L436.61-28.67L436.61-28.67Q439.87-32.32 443.97-32.32L443.97-32.32L443.97-32.32Q449.86-32.32 449.86-23.36L449.86-23.36L449.86-23.36Q449.86-18.88 448.38-14.21L448.38-14.21L448.38-14.21Q446.91-9.54 444.58-5.89L444.58-5.89L444.58-5.89Q442.24-2.24 439.74-0.64L439.74-0.64L439.74-0.64Q437.82 0.58 435.90 0.58L435.90 0.58ZM436.42-2.30L436.42-2.30Q438.40-2.30 440.86-5.76L440.86-5.76L440.86-5.76Q443.33-9.22 444.99-14.34L444.99-14.34L444.99-14.34Q446.72-19.46 446.72-23.04L446.72-23.04L446.72-23.04Q446.72-26.75 446.27-27.65L446.27-27.65L446.27-27.65Q445.89-28.61 445.31-28.99L445.31-28.99L445.31-28.99Q444.74-29.38 443.52-29.38L443.52-29.38L443.52-29.38Q442.18-29.38 440.70-28.35L440.70-28.35L440.70-28.35Q437.76-26.50 435.58-21.95L435.58-21.95L435.58-21.95Q432.19-15.17 432.19-8.77L432.19-8.77L432.19-8.77Q432.19-4.42 434.69-2.75L434.69-2.75L434.69-2.75Q435.58-2.30 436.42-2.30L436.42-2.30ZM458.56-10.24L458.56-10.24Q457.60-10.24 457.47-11.52L457.47-11.52L457.47-11.52Q463.36-36.93 465.60-56.19L465.60-56.19L465.60-56.19Q465.98-59.20 466.56-62.53L466.56-62.53L466.56-62.53Q467.26-65.73 467.33-68.86L467.33-68.86L467.33-68.86Q467.52-69.50 468.06-69.95L468.06-69.95L468.06-69.95Q468.61-70.40 469.18-70.40L469.18-70.40L469.18-70.40Q469.95-70.40 470.27-69.31L470.27-69.31L470.27-69.31Q470.14-66.56 469.44-62.53L469.44-62.53L469.44-62.53Q468.61-57.34 467.97-51.78L467.97-51.78L467.97-51.78Q467.26-45.25 465.12-33.95L465.12-33.95L465.12-33.95Q462.98-22.66 460.35-11.52L460.35-11.52L460.35-11.52Q459.65-10.24 458.56-10.24L458.56-10.24ZM457.54 3.14L457.54 3.14Q457.02 3.14 456.70 2.82L456.70 2.82L456.70 2.82Q456.38 2.50 456.38 2.05L456.38 2.05L456.38 2.05Q456.38 1.60 456.45 1.47L456.45 1.47L456.45 1.47Q455.17 0.96 455.17-0.38L455.17-0.38L455.17-0.38Q455.17-1.73 456.29-2.69L456.29-2.69L456.29-2.69Q457.41-3.65 458.56-3.65L458.56-3.65L458.56-3.65Q459.58-3.65 460.16-2.98L460.16-2.98L460.16-2.98Q460.74-2.30 460.74-1.15L460.74-1.15L460.74-1.15Q460.74 0.19 459.81 1.66L459.81 1.66L459.81 1.66Q458.88 3.14 457.54 3.14L457.54 3.14Z" fill="url(#editing-glowing-gradient)"></path></g></g><style>text {
  font-size: 64px;
  font-family: Arial Black;
  dominant-baseline: central;
  text-anchor: middle;
}</style></svg>