<svg xmlns="http://www.w3.org/2000/svg" version="1.1" xmlns:xlink="http://www.w3.org/1999/xlink" xmlns:svgjs="http://svgjs.dev/svgjs" viewBox="0 0 800 800"><defs><linearGradient x1="50%" y1="0%" x2="50%" y2="100%" id="ffflurry-grad" gradientTransform="rotate(270)"><stop stop-color="hsl(238, 82%, 13%)" stop-opacity="1" offset="0%"></stop><stop stop-color="hsl(1.4, 100%, 67%)" stop-opacity="1" offset="45%"></stop><stop stop-color="hsl(167, 52%, 78%)" stop-opacity="1" offset="100%"></stop></linearGradient></defs><rect width="100%" height="100%" fill="hsl(238, 82%, 13%)"></rect><g fill="url(#ffflurry-grad)"><rect width="122" height="3" x="196" y="63.5" rx="1.5" transform="rotate(45, 257, 65)" opacity="0.68"></rect><rect width="1207" height="3" x="-516.5" y="257.5" rx="1.5" transform="rotate(45, 87, 259)" opacity="0.64"></rect><rect width="929" height="3" x="181.5" y="166.5" rx="1.5" transform="rotate(45, 646, 168)" opacity="0.78"></rect><rect width="243" height="3" x="-45.5" y="88.5" rx="1.5" transform="rotate(45, 76, 90)" opacity="0.44"></rect><rect width="154" height="3" x="125" y="676.5" rx="1.5" transform="rotate(45, 202, 678)" opacity="0.14"></rect><rect width="722" height="3" x="270" y="718.5" rx="1.5" transform="rotate(45, 631, 720)" opacity="0.10"></rect><rect width="1021" height="3" x="113.5" y="532.5" rx="1.5" transform="rotate(45, 624, 534)" opacity="0.74"></rect><rect width="1251" height="3" x="-167.5" y="422.5" rx="1.5" transform="rotate(45, 458, 424)" opacity="0.50"></rect><rect width="1621" height="3" x="-453.5" y="176.5" rx="1.5" transform="rotate(45, 357, 178)" opacity="0.10"></rect><rect width="405" height="3" x="57.5" y="385.5" rx="1.5" transform="rotate(45, 260, 387)" opacity="0.87"></rect><rect width="425" height="3" x="-122.5" y="460.5" rx="1.5" transform="rotate(45, 90, 462)" opacity="0.25"></rect></g></svg>