<?xml version="1.0" encoding="UTF-8"?><svg id="Layer_1" xmlns="http://www.w3.org/2000/svg" viewBox="0 0 191 121"><defs><style>.cls-1{fill:#06083B;stroke-width:0px;}</style></defs><path class="cls-1" d="m98.15,87.36c5.52-5.91,10.88-11.6,16.12-17.4.41-.45.22-1.77-.11-2.5-2.54-5.63-5.24-11.19-7.79-16.81-3.89-8.58-4.19-17,1.51-24.99,10.25-14.37,32.46-12.68,39.98,3.3,10.32,21.96,20.24,44.11,30.26,66.2,2.39,5.27-.3,9.19-6.12,9.19-11.85.01-23.7-.06-35.54.05-3.54.03-5.66-1.42-7.06-4.6-2.73-6.19-5.66-12.3-8.9-19.28-.83,1.11-1.31,1.89-1.93,2.55-5.12,5.58-10.27,11.14-15.4,16.71-3.24,3.52-6.86,3.49-10.1-.05-5.11-5.59-10.27-11.14-15.37-16.73-.57-.63-.95-1.43-1.77-2.69-2.07,4.47-3.7,7.99-5.34,11.52-1.43,3.08-2.8,6.18-4.3,9.22-1.15,2.33-3.09,3.34-5.72,3.33-12.28-.05-24.57,0-36.85-.03-5.17-.01-7.8-4.21-5.63-9,8.48-18.69,17-37.37,25.51-56.04,1.51-3.33,3.02-6.66,4.59-9.95,4.65-9.72,15.34-15.21,25.44-13.11,11.09,2.31,19.12,11.21,19.08,22.34-.01,4.35-1.69,8.84-3.29,13-2.05,5.35-4.73,10.46-7.26,15.61-.73,1.49-.61,2.43.54,3.63,5.1,5.35,10.11,10.81,15.43,16.53Zm47.69-34.02c-5.15,5.68-10.2,11.18-15.13,16.79-.58.65-.93,2.12-.6,2.86,2.71,6.03,5.58,11.99,8.5,17.92.31.63,1.21,1.38,1.85,1.39,7.56.1,15.13.06,23.12.06-6.05-13.3-11.94-26.25-17.74-39.02Zm-113.1,39.02c7.96,0,15.52.04,23.08-.07.68-.01,1.63-.87,1.97-1.57,2.62-5.29,4.99-10.71,7.71-15.94,1.2-2.32,1.48-3.96-.82-5.73-1.56-1.2-2.75-2.89-4.11-4.35-3.38-3.67-6.77-7.33-10.23-11.09-5.85,12.88-11.66,25.66-17.61,38.74Zm39.75-32.43c2.75-6.33,5.44-11.97,7.65-17.8,1.63-4.29-.03-8.83-3.57-11.67-3.64-2.92-8.42-3.36-12.45-1.14-6.6,3.63-8.03,11.18-2.95,17.86,3.3,4.33,7.23,8.18,11.32,12.74Zm51.23-.15c5.23-5.43,10.27-10.19,13.16-16.55.85-1.86,1.31-4.23,1.01-6.22-.95-6.11-7.49-10.21-13.5-8.84-6.22,1.43-10.31,7.66-8.26,13.68,2.03,5.96,4.89,11.65,7.59,17.93Z"/></svg>